<svg xmlns="http://www.w3.org/2000/svg" width="360" height="276" viewBox="0 0 360 276" font-family="'Inter', system-ui, -apple-system, 'Segoe UI', Roboto, Helvetica, Arial, sans-serif"><rect x="0" y="0" width="360" height="276" rx="14" fill="#f8fafc" stroke="#e8edf3"/><rect x="20" y="20" width="146" height="148" rx="10" fill="none" stroke="#dc2626" stroke-width="2.5"/><rect x="32" y="32" width="122" height="56" rx="10" fill="none" stroke="#ea580c" stroke-width="2.5"/><rect x="32" y="100" width="122" height="56" rx="10" fill="none" stroke="#ea580c" stroke-width="2.5"/><rect x="194" y="20" width="146" height="148" rx="10" fill="none" stroke="#cbd5e1" stroke-width="2.5"/><rect x="206" y="32" width="122" height="56" rx="10" fill="none" stroke="#cbd5e1" stroke-width="2.5"/><rect x="206" y="100" width="122" height="56" rx="10" fill="none" stroke="#cbd5e1" stroke-width="2.5"/><g><title>[0, 0, 0]  value 0  ·  flat 0</title><rect x="41" y="41" width="48" height="38" rx="7" fill="#f1f5f9" stroke="#e2e8f0" stroke-width="1"/><text x="79" y="60" text-anchor="end" dominant-baseline="central" font-size="15" font-family="ui-monospace, 'SF Mono', Menlo, Consolas, 'Liberation Mono', monospace" font-weight="400" fill="#64748b">0</text></g><g><title>[0, 0, 1]  value 1  ·  flat 1</title><rect x="97" y="41" width="48" height="38" rx="7" fill="#16a34a" stroke="#15803d" stroke-width="1"/><text x="135" y="60" text-anchor="end" dominant-baseline="central" font-size="15" font-family="ui-monospace, 'SF Mono', Menlo, Consolas, 'Liberation Mono', monospace" font-weight="700" fill="#ffffff">1</text></g><g><title>[0, 1, 0]  value 2  ·  flat 2</title><rect x="41" y="109" width="48" height="38" rx="7" fill="#f1f5f9" stroke="#e2e8f0" stroke-width="1"/><text x="79" y="128" text-anchor="end" dominant-baseline="central" font-size="15" font-family="ui-monospace, 'SF Mono', Menlo, Consolas, 'Liberation Mono', monospace" font-weight="400" fill="#64748b">2</text></g><g><title>[0, 1, 1]  value 3  ·  flat 3</title><rect x="97" y="109" width="48" height="38" rx="7" fill="#16a34a" stroke="#15803d" stroke-width="1"/><text x="135" y="128" text-anchor="end" dominant-baseline="central" font-size="15" font-family="ui-monospace, 'SF Mono', Menlo, Consolas, 'Liberation Mono', monospace" font-weight="700" fill="#ffffff">3</text></g><g><title>[1, 0, 0]  value 4  ·  flat 4</title><rect x="215" y="41" width="48" height="38" rx="7" fill="#f1f5f9" stroke="#e2e8f0" stroke-width="1"/><text x="253" y="60" text-anchor="end" dominant-baseline="central" font-size="15" font-family="ui-monospace, 'SF Mono', Menlo, Consolas, 'Liberation Mono', monospace" font-weight="400" fill="#64748b">4</text></g><g><title>[1, 0, 1]  value 5  ·  flat 5</title><rect x="271" y="41" width="48" height="38" rx="7" fill="#f1f5f9" stroke="#e2e8f0" stroke-width="1"/><text x="309" y="60" text-anchor="end" dominant-baseline="central" font-size="15" font-family="ui-monospace, 'SF Mono', Menlo, Consolas, 'Liberation Mono', monospace" font-weight="400" fill="#64748b">5</text></g><g><title>[1, 1, 0]  value 6  ·  flat 6</title><rect x="215" y="109" width="48" height="38" rx="7" fill="#f1f5f9" stroke="#e2e8f0" stroke-width="1"/><text x="253" y="128" text-anchor="end" dominant-baseline="central" font-size="15" font-family="ui-monospace, 'SF Mono', Menlo, Consolas, 'Liberation Mono', monospace" font-weight="400" fill="#64748b">6</text></g><g><title>[1, 1, 1]  value 7  ·  flat 7</title><rect x="271" y="109" width="48" height="38" rx="7" fill="#f1f5f9" stroke="#e2e8f0" stroke-width="1"/><text x="309" y="128" text-anchor="end" dominant-baseline="central" font-size="15" font-family="ui-monospace, 'SF Mono', Menlo, Consolas, 'Liberation Mono', monospace" font-weight="400" fill="#64748b">7</text></g><text x="20" y="214" font-size="16" font-weight="700"><tspan fill="#0f172a">Index (</tspan><tspan fill="#dc2626">0</tspan><tspan fill="#0f172a">, </tspan><tspan fill="#ea580c">:</tspan><tspan fill="#0f172a">, </tspan><tspan fill="#16a34a">1</tspan><tspan fill="#0f172a">)</tspan></text><rect x="20" y="241" width="13" height="13" rx="3" fill="#dc2626"/><text x="40" y="254" font-size="13" fill="#64748b"><tspan fill="#dc2626" font-weight="600">axis 0</tspan> · 2</text><rect x="130" y="241" width="13" height="13" rx="3" fill="#ea580c"/><text x="150" y="254" font-size="13" fill="#64748b"><tspan fill="#ea580c" font-weight="600">axis 1</tspan> · 2</text><rect x="239" y="241" width="13" height="13" rx="3" fill="#16a34a"/><text x="259" y="254" font-size="13" fill="#64748b"><tspan fill="#16a34a" font-weight="600">axis 2</tspan> · 2</text></svg>