<svg xmlns="http://www.w3.org/2000/svg" width="460" height="484" viewBox="0 0 460 484" font-family="'Inter', system-ui, -apple-system, 'Segoe UI', Roboto, Helvetica, Arial, sans-serif"><rect x="0" y="0" width="460" height="484" rx="14" fill="#f8fafc" stroke="#e8edf3"/><rect x="20" y="20" width="344" height="172" rx="10" fill="none" stroke="#cbd5e1" stroke-width="2.5"/><rect x="32" y="32" width="146" height="148" rx="10" fill="none" stroke="#cbd5e1" stroke-width="2.5"/><rect x="44" y="44" width="122" height="56" rx="10" fill="none" stroke="#cbd5e1" stroke-width="2.5"/><rect x="44" y="112" width="122" height="56" rx="10" fill="none" stroke="#cbd5e1" stroke-width="2.5"/><rect x="206" y="32" width="146" height="148" rx="10" fill="none" stroke="#cbd5e1" stroke-width="2.5"/><rect x="218" y="44" width="122" height="56" rx="10" fill="none" stroke="#cbd5e1" stroke-width="2.5"/><rect x="218" y="112" width="122" height="56" rx="10" fill="none" stroke="#cbd5e1" stroke-width="2.5"/><rect x="20" y="204" width="344" height="172" rx="10" fill="none" stroke="#dc2626" stroke-width="2.5"/><rect x="32" y="216" width="146" height="148" rx="10" fill="none" stroke="#ea580c" stroke-width="2.5"/><rect x="44" y="228" width="122" height="56" rx="10" fill="none" stroke="#65a30d" stroke-width="2.5"/><rect x="44" y="296" width="122" height="56" rx="10" fill="none" stroke="#cbd5e1" stroke-width="2.5"/><rect x="206" y="216" width="146" height="148" rx="10" fill="none" stroke="#ea580c" stroke-width="2.5"/><rect x="218" y="228" width="122" height="56" rx="10" fill="none" stroke="#65a30d" stroke-width="2.5"/><rect x="218" y="296" width="122" height="56" rx="10" fill="none" stroke="#cbd5e1" stroke-width="2.5"/><g><title>[0, 0, 0, 0]  value 0  ·  flat 0</title><rect x="53" y="53" width="48" height="38" rx="7" fill="#f1f5f9" stroke="#e2e8f0" stroke-width="1"/><text x="91" y="72" text-anchor="end" dominant-baseline="central" font-size="15" font-family="ui-monospace, 'SF Mono', Menlo, Consolas, 'Liberation Mono', monospace" font-weight="400" fill="#64748b">0</text></g><g><title>[0, 0, 0, 1]  value 1  ·  flat 1</title><rect x="109" y="53" width="48" height="38" rx="7" fill="#f1f5f9" stroke="#e2e8f0" stroke-width="1"/><text x="147" y="72" text-anchor="end" dominant-baseline="central" font-size="15" font-family="ui-monospace, 'SF Mono', Menlo, Consolas, 'Liberation Mono', monospace" font-weight="400" fill="#64748b">1</text></g><g><title>[0, 0, 1, 0]  value 2  ·  flat 2</title><rect x="53" y="121" width="48" height="38" rx="7" fill="#f1f5f9" stroke="#e2e8f0" stroke-width="1"/><text x="91" y="140" text-anchor="end" dominant-baseline="central" font-size="15" font-family="ui-monospace, 'SF Mono', Menlo, Consolas, 'Liberation Mono', monospace" font-weight="400" fill="#64748b">2</text></g><g><title>[0, 0, 1, 1]  value 3  ·  flat 3</title><rect x="109" y="121" width="48" height="38" rx="7" fill="#f1f5f9" stroke="#e2e8f0" stroke-width="1"/><text x="147" y="140" text-anchor="end" dominant-baseline="central" font-size="15" font-family="ui-monospace, 'SF Mono', Menlo, Consolas, 'Liberation Mono', monospace" font-weight="400" fill="#64748b">3</text></g><g><title>[0, 1, 0, 0]  value 4  ·  flat 4</title><rect x="227" y="53" width="48" height="38" rx="7" fill="#f1f5f9" stroke="#e2e8f0" stroke-width="1"/><text x="265" y="72" text-anchor="end" dominant-baseline="central" font-size="15" font-family="ui-monospace, 'SF Mono', Menlo, Consolas, 'Liberation Mono', monospace" font-weight="400" fill="#64748b">4</text></g><g><title>[0, 1, 0, 1]  value 5  ·  flat 5</title><rect x="283" y="53" width="48" height="38" rx="7" fill="#f1f5f9" stroke="#e2e8f0" stroke-width="1"/><text x="321" y="72" text-anchor="end" dominant-baseline="central" font-size="15" font-family="ui-monospace, 'SF Mono', Menlo, Consolas, 'Liberation Mono', monospace" font-weight="400" fill="#64748b">5</text></g><g><title>[0, 1, 1, 0]  value 6  ·  flat 6</title><rect x="227" y="121" width="48" height="38" rx="7" fill="#f1f5f9" stroke="#e2e8f0" stroke-width="1"/><text x="265" y="140" text-anchor="end" dominant-baseline="central" font-size="15" font-family="ui-monospace, 'SF Mono', Menlo, Consolas, 'Liberation Mono', monospace" font-weight="400" fill="#64748b">6</text></g><g><title>[0, 1, 1, 1]  value 7  ·  flat 7</title><rect x="283" y="121" width="48" height="38" rx="7" fill="#f1f5f9" stroke="#e2e8f0" stroke-width="1"/><text x="321" y="140" text-anchor="end" dominant-baseline="central" font-size="15" font-family="ui-monospace, 'SF Mono', Menlo, Consolas, 'Liberation Mono', monospace" font-weight="400" fill="#64748b">7</text></g><g><title>[1, 0, 0, 0]  value 8  ·  flat 8</title><rect x="53" y="237" width="48" height="38" rx="7" fill="#16a34a" stroke="#15803d" stroke-width="1"/><text x="91" y="256" text-anchor="end" dominant-baseline="central" font-size="15" font-family="ui-monospace, 'SF Mono', Menlo, Consolas, 'Liberation Mono', monospace" font-weight="700" fill="#ffffff">8</text></g><g><title>[1, 0, 0, 1]  value 9  ·  flat 9</title><rect x="109" y="237" width="48" height="38" rx="7" fill="#16a34a" stroke="#15803d" stroke-width="1"/><text x="147" y="256" text-anchor="end" dominant-baseline="central" font-size="15" font-family="ui-monospace, 'SF Mono', Menlo, Consolas, 'Liberation Mono', monospace" font-weight="700" fill="#ffffff">9</text></g><g><title>[1, 0, 1, 0]  value 10  ·  flat 10</title><rect x="53" y="305" width="48" height="38" rx="7" fill="#f1f5f9" stroke="#e2e8f0" stroke-width="1"/><text x="91" y="324" text-anchor="end" dominant-baseline="central" font-size="15" font-family="ui-monospace, 'SF Mono', Menlo, Consolas, 'Liberation Mono', monospace" font-weight="400" fill="#64748b">10</text></g><g><title>[1, 0, 1, 1]  value 11  ·  flat 11</title><rect x="109" y="305" width="48" height="38" rx="7" fill="#f1f5f9" stroke="#e2e8f0" stroke-width="1"/><text x="147" y="324" text-anchor="end" dominant-baseline="central" font-size="15" font-family="ui-monospace, 'SF Mono', Menlo, Consolas, 'Liberation Mono', monospace" font-weight="400" fill="#64748b">11</text></g><g><title>[1, 1, 0, 0]  value 12  ·  flat 12</title><rect x="227" y="237" width="48" height="38" rx="7" fill="#16a34a" stroke="#15803d" stroke-width="1"/><text x="265" y="256" text-anchor="end" dominant-baseline="central" font-size="15" font-family="ui-monospace, 'SF Mono', Menlo, Consolas, 'Liberation Mono', monospace" font-weight="700" fill="#ffffff">12</text></g><g><title>[1, 1, 0, 1]  value 13  ·  flat 13</title><rect x="283" y="237" width="48" height="38" rx="7" fill="#16a34a" stroke="#15803d" stroke-width="1"/><text x="321" y="256" text-anchor="end" dominant-baseline="central" font-size="15" font-family="ui-monospace, 'SF Mono', Menlo, Consolas, 'Liberation Mono', monospace" font-weight="700" fill="#ffffff">13</text></g><g><title>[1, 1, 1, 0]  value 14  ·  flat 14</title><rect x="227" y="305" width="48" height="38" rx="7" fill="#f1f5f9" stroke="#e2e8f0" stroke-width="1"/><text x="265" y="324" text-anchor="end" dominant-baseline="central" font-size="15" font-family="ui-monospace, 'SF Mono', Menlo, Consolas, 'Liberation Mono', monospace" font-weight="400" fill="#64748b">14</text></g><g><title>[1, 1, 1, 1]  value 15  ·  flat 15</title><rect x="283" y="305" width="48" height="38" rx="7" fill="#f1f5f9" stroke="#e2e8f0" stroke-width="1"/><text x="321" y="324" text-anchor="end" dominant-baseline="central" font-size="15" font-family="ui-monospace, 'SF Mono', Menlo, Consolas, 'Liberation Mono', monospace" font-weight="400" fill="#64748b">15</text></g><text x="20" y="422" font-size="16" font-weight="700"><tspan fill="#0f172a">Index (</tspan><tspan fill="#dc2626">1</tspan><tspan fill="#0f172a">, </tspan><tspan fill="#ea580c">:</tspan><tspan fill="#0f172a">, </tspan><tspan fill="#65a30d">0</tspan><tspan fill="#0f172a">, </tspan><tspan fill="#16a34a">:</tspan><tspan fill="#0f172a">)</tspan></text><rect x="20" y="449" width="13" height="13" rx="3" fill="#dc2626"/><text x="40" y="462" font-size="13" fill="#64748b"><tspan fill="#dc2626" font-weight="600">axis 0</tspan> · 2</text><rect x="130" y="449" width="13" height="13" rx="3" fill="#ea580c"/><text x="150" y="462" font-size="13" fill="#64748b"><tspan fill="#ea580c" font-weight="600">axis 1</tspan> · 2</text><rect x="239" y="449" width="13" height="13" rx="3" fill="#65a30d"/><text x="259" y="462" font-size="13" fill="#64748b"><tspan fill="#65a30d" font-weight="600">axis 2</tspan> · 2</text><rect x="348" y="449" width="13" height="13" rx="3" fill="#16a34a"/><text x="368" y="462" font-size="13" fill="#64748b"><tspan fill="#16a34a" font-weight="600">axis 3</tspan> · 2</text></svg>